Coordinates
version=1
nRows=6
nColumns=40
inDegrees=yes

Units are S.I. units (second, meters, Newtons, ...)
If the header above contains a line with 'inDegrees', this indicates whether rotational values are in degrees (yes) or radians (no).

endheader
time	pelvis_tilt	pelvis_list	pelvis_rotation	pelvis_tx	pelvis_ty	pelvis_tz	hip_flexion_r	hip_adduction_r	hip_rotation_r	knee_angle_r	knee_angle_r_beta	ankle_angle_r	subtalar_angle_r	mtp_angle_r	hip_flexion_l	hip_adduction_l	hip_rotation_l	knee_angle_l	knee_angle_l_beta	ankle_angle_l	subtalar_angle_l	mtp_angle_l	lumbar_extension	lumbar_bending	lumbar_rotation	arm_flex_r	arm_add_r	arm_rot_r	elbow_flex_r	pro_sup_r	wrist_flex_r	wrist_dev_r	arm_flex_l	arm_add_l	arm_rot_l	elbow_flex_l	pro_sup_l	wrist_flex_l	wrist_dev_l
     11.05000000000000071054	     -0.11199527000427898782	     -3.66955200238774725818	   -179.37920749524474217651	      0.18262914398688229189	      0.86860328064967473605	     -0.91587055732150224330	     13.22531789127575407861	    -32.80266955571746478881	    -27.39065352495601857186	     12.13098405834210780085	      0.21172561332501366183	    -17.52494998584817764709	      0.00000000000000000000	      0.00000000000000000000	      9.16991039133431762309	    -23.97630849835642052881	    -31.00755720636990986350	     10.16864463140642094174	      0.17747632928328724300	    -14.01056304763652171630	      0.00000000000000000000	      0.00000000000000000000	    -24.54179283556823776280	     -0.83796111286235064330	     -6.54404067660799437789	     22.74929463174377630708	     -2.74859272995791314997	     28.61615673303003504202	      5.34746474736306520725	     18.81240141015477362885	      0.00000000000000000000	      0.00000000000000000000	     24.68034080264202856370	     -6.99408910741198130978	     68.67476425334703549197	      7.94527775948982029064	     76.98077779159608269310	      0.00000000000000000000	      0.00000000000000000000
     11.05499999999999971578	     -0.28880314688758162989	     -4.20824997823452129353	   -179.33666979858040235740	      0.18171192112091766324	      0.86894076017944421597	     -0.91535941114789731721	     12.95649102863144008779	    -33.37299981400985871005	    -26.99074383559034373548	     12.03040246187879702688	      0.20997013329981661922	    -17.46998380204349743394	      0.00000000000000000000	      0.00000000000000000000	      8.67695309134852976740	    -23.23559345958759436712	    -31.19607223408700136247	      9.72234848993452871468	      0.16968699217565630377	    -14.19327973372054430001	      0.00000000000000000000	      0.00000000000000000000	    -24.15709755374755474122	     -1.36498737911049472515	     -6.61091992818579932134	     22.38056468116043618011	     -2.84495267187071032566	     28.72058638280363851436	      5.40697066772985479588	     18.82486741393290330393	      0.00000000000000000000	      0.00000000000000000000	     24.41997843784493937846	     -6.97619074995678012385	     68.63824563988310956120	      8.04043073959510046222	     76.95838203894500395563	      0.00000000000000000000	      0.00000000000000000000
     11.06000000000000049738	     -0.41044109992695765321	     -4.65891844419350231732	   -179.26743777165572168997	      0.18090488372289204033	      0.86920516480960408057	     -0.91486239549703340934	     12.73135399940652412454	    -33.83491127505770634798	    -26.60871053792318718934	     11.92525025575511676834	      0.20813488108722266734	    -17.37663578368374928118	      0.00000000000000000000	      0.00000000000000000000	      8.33307039399054616524	    -22.62072832419967838291	    -31.31448970676203558128	      9.40212230449848362923	      0.16409799088869542194	    -14.30568474290080516198	      0.00000000000000000000	      0.00000000000000000000	    -23.73776425764583564160	     -1.79674944258432844890	     -6.70025398835117513840	     22.00648911707785515546	     -2.95978041898227051121	     28.85071234211108759382	      5.49369040023530708083	     18.85032942672488687208	      0.00000000000000000000	      0.00000000000000000000	     24.17565371270917040647	     -6.96386874766242147672	     68.55514882513725183344	      8.13465963944653047690	     76.93189025343795606204	      0.00000000000000000000	      0.00000000000000000000
     11.06499999999999950262	     -0.51189552046090813775	     -4.84907479365057891840	   -179.05586547902584015901	      0.18013759029010292800	      0.86930782816909213384	     -0.91408346509321369844	     12.35713632849539855840	    -34.05522583326347785260	    -26.47872728672242104153	     11.78578503660789067453	      0.20570075382108812811	    -17.25762490904325474617	      0.00000000000000000000	      0.00000000000000000000	      8.18429029548222430890	    -22.32506941586122550802	    -31.21148086447296776669	      9.30548865245436651605	      0.16241141549229901053	    -14.15312373477769369856	      0.00000000000000000000	      0.00000000000000000000	    -23.27489788922158098217	     -1.87593976591037359114	     -6.82418075755261721582	     21.76665077446104845649	     -3.10059884967786691945	     28.84134416977714465702	      5.43531279450143767207	     18.84252204422505627690	      0.00000000000000000000	      0.00000000000000000000	     23.82724476492746390477	     -6.87468448794563613546	     68.54935982533999094812	      8.17194243648903473343	     76.94108676751251607584	      0.00000000000000000000	      0.00000000000000000000
     11.07000000000000028422	     -0.61851375566427246877	     -5.45912348346274978184	   -179.01021399942527523308	      0.17935674137580584486	      0.86944581239748730539	     -0.91373842789339976278	     12.20640930610279717428	    -34.71355849279040484134	    -25.91941962575825897375	     11.71242031401275518476	      0.20442029785699072919	    -17.23049962592778427961	      0.00000000000000000000	      0.00000000000000000000	      7.81696668583947396058	    -21.54286486957950330634	    -31.36623332890212978441	      8.95917659651335362980	      0.15636712987677756082	    -14.26857931201215912154	      0.00000000000000000000	      0.00000000000000000000	    -22.85829892046250932935	     -2.52899409227959948154	     -6.87926958997250093120	     21.24808748330298513451	     -3.20519211232693690405	     28.87368627642665686039	      5.45790923046408238406	     18.85680208058317930409	      0.00000000000000000000	      0.00000000000000000000	     23.68410128102862088895	     -6.92772211444834429273	     68.40558751305648854668	      8.22474052804131616767	     76.92453680550252670400	      0.00000000000000000000	      0.00000000000000000000
     11.07499999999999928946	     -0.74465935772145530613	     -5.69140256373542285928	   -178.83620826579345930440	      0.17872441320911341966	      0.86954790111065094482	     -0.91315208767230526821	     11.90415310954599803495	    -34.99712125549074670516	    -25.71955013055054806159	     11.70632866245760794754	      0.20431397848046917165	    -17.05565088719229294156	      0.00000000000000000000	      0.00000000000000000000	      7.61386528814876850646	    -21.21690027205552908640	    -31.31352265371780418945	      8.81870692727184390947	      0.15391547164932581349	    -14.21872286062157897391	      0.00000000000000000000	      0.00000000000000000000	    -22.44938564916612833144	     -2.68965908661486086118	     -6.94637858959174536722	     21.01147971472934372628	     -3.32586016370371639894	     28.87335147930025414098	      5.45589085140884577640	     18.86106158485707950945	      0.00000000000000000000	      0.00000000000000000000	     23.39442378725692250896	     -6.84749493710503465138	     68.34595337426836181294	      8.29118389846999548354	     76.92570694539982412152	      0.00000000000000000000	      0.00000000000000000000
